<svg width="29" height="29" viewBox="0 0 29 29" fill="none" xmlns="http://www.w3.org/2000/svg">
<path d="M14.2215 16.8619C18.9965 16.8619 22.8719 18.6728 22.8719 20.8988V23.7823H5.57104V20.8988C5.57104 18.6728 9.44643 16.8619 14.2215 16.8619ZM21.7185 20.8988C21.7185 19.3071 18.3621 18.0153 14.2215 18.0153C10.0808 18.0153 6.72443 19.3071 6.72443 20.8988V22.6289H21.7185V20.8988ZM14.2215 6.48145C15.2921 6.48145 16.3189 6.90676 17.0759 7.66381C17.833 8.42087 18.2583 9.44766 18.2583 10.5183C18.2583 11.5889 17.833 12.6157 17.0759 13.3728C16.3189 14.1299 15.2921 14.5552 14.2215 14.5552C13.1508 14.5552 12.124 14.1299 11.367 13.3728C10.6099 12.6157 10.1846 11.5889 10.1846 10.5183C10.1846 9.44766 10.6099 8.42087 11.367 7.66381C12.124 6.90676 13.1508 6.48145 14.2215 6.48145ZM14.2215 7.63483C13.4567 7.63483 12.7233 7.93863 12.1825 8.47938C11.6418 9.02014 11.338 9.75356 11.338 10.5183C11.338 11.283 11.6418 12.0165 12.1825 12.5572C12.7233 13.098 13.4567 13.4018 14.2215 13.4018C14.9862 13.4018 15.7196 13.098 16.2604 12.5572C16.8011 12.0165 17.1049 11.283 17.1049 10.5183C17.1049 9.75356 16.8011 9.02014 16.2604 8.47938C15.7196 7.93863 14.9862 7.63483 14.2215 7.63483Z" fill="black"/>
</svg>
