<svg width="42" height="42" viewBox="0 0 42 42" fill="none" xmlns="http://www.w3.org/2000/svg">
<path d="M19.7934 13.7689C24.0964 13.7689 27.5387 17.2112 27.5387 21.5141C27.5387 25.8171 24.0964 29.2594 19.7934 29.2594C15.4905 29.2594 12.0482 25.8171 12.0482 21.5141C12.0482 17.2112 15.4905 13.7689 19.7934 13.7689ZM19.7934 15.4901C18.1958 15.4901 16.6635 16.1247 15.5338 17.2545C14.404 18.3842 13.7694 19.9165 13.7694 21.5141C13.7694 23.1118 14.404 24.6441 15.5338 25.7738C16.6635 26.9035 18.1958 27.5382 19.7934 27.5382C21.3911 27.5382 22.9234 26.9035 24.0531 25.7738C25.1828 24.6441 25.8175 23.1118 25.8175 21.5141C25.8175 19.9165 25.1828 18.3842 24.0531 17.2545C22.9234 16.1247 21.3911 15.4901 19.7934 15.4901ZM8.60588 8.60541H12.0482L15.4905 5.16309H24.0964L27.5387 8.60541H30.981C32.3505 8.60541 33.6638 9.14942 34.6321 10.1178C35.6005 11.0861 36.1445 12.3995 36.1445 13.7689V29.2594C36.1445 30.6288 35.6005 31.9422 34.6321 32.9105C33.6638 33.8789 32.3505 34.4229 30.981 34.4229H8.60588C7.23643 34.4229 5.92308 33.8789 4.95473 32.9105C3.98639 31.9422 3.44238 30.6288 3.44238 29.2594V13.7689C3.44238 12.3995 3.98639 11.0861 4.95473 10.1178C5.92308 9.14942 7.23643 8.60541 8.60588 8.60541ZM16.1962 6.88425L12.7539 10.3266H8.60588C7.69291 10.3266 6.81734 10.6893 6.17178 11.3348C5.52622 11.9804 5.16355 12.8559 5.16355 13.7689V29.2594C5.16355 30.1723 5.52622 31.0479 6.17178 31.6935C6.81734 32.339 7.69291 32.7017 8.60588 32.7017H30.981C31.894 32.7017 32.7695 32.339 33.4151 31.6935C34.0607 31.0479 34.4233 30.1723 34.4233 29.2594V13.7689C34.4233 12.8559 34.0607 11.9804 33.4151 11.3348C32.7695 10.6893 31.894 10.3266 30.981 10.3266H26.833L23.3907 6.88425H16.1962Z" fill="#1E1E1E"/>
</svg>
