<svg width="27" height="27" viewBox="0 0 27 27" fill="none" xmlns="http://www.w3.org/2000/svg">
<path d="M7.72053 23.4289C7.22387 23.4289 6.80951 23.2628 6.47745 22.9308C6.14538 22.5987 5.97899 22.1843 5.97827 21.6877V10.0762C5.97827 9.58024 6.14466 9.16623 6.47745 8.83417C6.81023 8.5021 7.22459 8.33571 7.72053 8.33499H9.75174V7.79593C9.75174 6.74798 10.1187 5.85708 10.8525 5.12323C11.5864 4.38939 12.4773 4.02246 13.5252 4.02246C14.5731 4.02246 15.464 4.38939 16.1979 5.12323C16.9317 5.85708 17.2987 6.74798 17.2987 7.79593V8.33499H19.331C19.8269 8.33499 20.2409 8.50139 20.573 8.83417C20.905 9.16695 21.0714 9.58132 21.0721 10.0773V21.6877C21.0721 22.1836 20.9057 22.598 20.573 22.9308C20.2402 23.2635 19.8262 23.4296 19.331 23.4289H7.72053ZM7.72053 22.3507H19.331C19.4963 22.3507 19.6483 22.2817 19.787 22.1437C19.9257 22.0057 19.9947 21.8533 19.994 21.6866V10.0773C19.994 9.91122 19.925 9.75885 19.787 9.62013C19.649 9.48141 19.4966 9.41241 19.3299 9.41313H17.2987V12.1085C17.2987 12.2623 17.2473 12.3906 17.1445 12.4934C17.0417 12.5961 16.9134 12.6475 16.7596 12.6475C16.6058 12.6475 16.4775 12.5961 16.3747 12.4934C16.2719 12.3906 16.2205 12.2623 16.2205 12.1085V9.41313H10.8299V12.1085C10.8299 12.2623 10.7785 12.3906 10.6757 12.4934C10.5729 12.5961 10.4446 12.6475 10.2908 12.6475C10.137 12.6475 10.0087 12.5961 9.90591 12.4934C9.80313 12.3906 9.75174 12.2623 9.75174 12.1085V9.41313H7.72053C7.5545 9.41313 7.40213 9.48213 7.26341 9.62013C7.12469 9.75813 7.05569 9.91051 7.0564 10.0773V21.6877C7.0564 21.853 7.12541 22.005 7.26341 22.1437C7.40141 22.2824 7.55342 22.3514 7.71946 22.3507M10.8299 8.33499H16.2205V7.79593C16.2205 7.03692 15.9611 6.39795 15.4421 5.87901C14.9232 5.36006 14.2842 5.10059 13.5252 5.10059C12.7662 5.10059 12.1272 5.36006 11.6083 5.87901C11.0893 6.39795 10.8299 7.03692 10.8299 7.79593V8.33499Z" fill="#1E1E1E"/>
</svg>
