<svg width="48" height="44" viewBox="0 0 48 44" fill="none" xmlns="http://www.w3.org/2000/svg">
<path d="M23.9932 0.5C37.0168 0.5 47.4863 10.0341 47.4863 21.6914C47.4862 33.3486 37.0167 42.8828 23.9932 42.8828C10.9697 42.8827 0.500138 33.3486 0.5 21.6914C0.5 10.0341 10.9696 0.500082 23.9932 0.5Z" stroke="white"/>
<path d="M29.8777 11.103H26.5911C25.1383 11.103 23.745 11.6801 22.7177 12.7074C21.6904 13.7347 21.1133 15.128 21.1133 16.5808V19.8674H17.8267V24.2496H21.1133V33.014H25.4955V24.2496H28.7822L29.8777 19.8674H25.4955V16.5808C25.4955 16.2902 25.6109 16.0116 25.8164 15.8061C26.0218 15.6007 26.3005 15.4852 26.5911 15.4852H29.8777V11.103Z" stroke="white" stroke-width="1.5" stroke-linecap="round" stroke-linejoin="round"/>
</svg>
