<svg width="32" height="32" viewBox="0 0 32 32" fill="none" xmlns="http://www.w3.org/2000/svg">
<path d="M15 15.5C15 15.6326 14.9473 15.7598 14.8536 15.8536C14.7598 15.9473 14.6326 16 14.5 16H8.5C8.36739 16 8.24021 15.9473 8.14645 15.8536C8.05268 15.7598 8 15.6326 8 15.5C8 15.3674 8.05268 15.2402 8.14645 15.1464C8.24021 15.0527 8.36739 15 8.5 15H14.5C14.6326 15 14.7598 15.0527 14.8536 15.1464C14.9473 15.2402 15 15.3674 15 15.5ZM14.5 11H8.5C8.36739 11 8.24021 11.0527 8.14645 11.1464C8.05268 11.2402 8 11.3674 8 11.5C8 11.6326 8.05268 11.7598 8.14645 11.8536C8.24021 11.9473 8.36739 12 8.5 12H14.5C14.6326 12 14.7598 11.9473 14.8536 11.8536C14.9473 11.7598 15 11.6326 15 11.5C15 11.3674 14.9473 11.2402 14.8536 11.1464C14.7598 11.0527 14.6326 11 14.5 11ZM28 18.4675V26.5C28.0001 26.5878 27.9771 26.6741 27.9333 26.7503C27.8895 26.8264 27.8264 26.8896 27.7503 26.9336C27.6743 26.9775 27.588 27.0007 27.5002 27.0007C27.4124 27.0008 27.3261 26.9777 27.25 26.9338L24 25.0763L20.75 26.9338C20.6739 26.9777 20.5876 27.0008 20.4998 27.0007C20.412 27.0007 20.3257 26.9775 20.2497 26.9336C20.1736 26.8896 20.1105 26.8264 20.0667 26.7503C20.0229 26.6741 19.9999 26.5878 20 26.5V23H4.5C4.10218 23 3.72064 22.842 3.43934 22.5607C3.15804 22.2794 3 21.8978 3 21.5V5.5C3 5.10218 3.15804 4.72064 3.43934 4.43934C3.72064 4.15804 4.10218 4 4.5 4H26.5C26.8978 4 27.2794 4.15804 27.5607 4.43934C27.842 4.72064 28 5.10218 28 5.5V9.5325C28.6291 10.0944 29.1324 10.7828 29.4771 11.5527C29.8217 12.3225 29.9998 13.1565 29.9998 14C29.9998 14.8435 29.8217 15.6775 29.4771 16.4473C29.1324 17.2172 28.6291 17.9056 28 18.4675ZM24 9C23.0111 9 22.0444 9.29325 21.2221 9.84265C20.3999 10.3921 19.759 11.173 19.3806 12.0866C19.0022 13.0002 18.9031 14.0055 19.0961 14.9755C19.289 15.9454 19.7652 16.8363 20.4645 17.5355C21.1637 18.2348 22.0546 18.711 23.0245 18.9039C23.9945 19.0969 24.9998 18.9978 25.9134 18.6194C26.827 18.241 27.6079 17.6001 28.1573 16.7779C28.7068 15.9556 29 14.9889 29 14C29 12.6739 28.4732 11.4021 27.5355 10.4645C26.5979 9.52678 25.3261 9 24 9ZM20 22V18.4675C18.9033 17.4753 18.2117 16.1129 18.058 14.642C17.9042 13.1711 18.2992 11.6952 19.167 10.4976C20.0348 9.30005 21.3143 8.46517 22.76 8.15324C24.2057 7.84131 25.7156 8.07431 27 8.8075V5.5C27 5.36739 26.9473 5.24021 26.8536 5.14645C26.7598 5.05268 26.6326 5 26.5 5H4.5C4.36739 5 4.24021 5.05268 4.14645 5.14645C4.05268 5.24021 4 5.36739 4 5.5V21.5C4 21.6326 4.05268 21.7598 4.14645 21.8536C4.24021 21.9473 4.36739 22 4.5 22H20ZM27 19.1925C26.0887 19.7214 25.0537 20 24 20C22.9463 20 21.9113 19.7214 21 19.1925V25.6388L23.75 24.0662C23.826 24.0224 23.9122 23.9993 24 23.9993C24.0878 23.9993 24.174 24.0224 24.25 24.0662L27 25.6388V19.1925Z" fill="black"/>
</svg>
