<svg width="32" height="24" viewBox="0 0 32 24" fill="none" xmlns="http://www.w3.org/2000/svg">
<path d="M26.7391 10.5176C26.6443 10.4875 26.5415 10.4962 26.4531 10.542C26.3648 10.5877 26.2983 10.6666 26.2681 10.7614C26.238 10.8562 26.2467 10.959 26.2925 11.0474C26.3382 11.1357 26.4171 11.2022 26.5119 11.2324C29.4429 12.1661 30.7501 13.5589 30.7501 15.7504C30.7501 17.6996 28.9719 19.2124 27.9129 19.9414C27.8627 19.9758 27.8217 20.0219 27.7933 20.0758C27.765 20.1296 27.7502 20.1895 27.7501 20.2504V23.1176C26.8496 22.7761 26.0451 22.2216 25.4056 21.5014C25.3625 21.4528 25.3074 21.4163 25.2459 21.3953C25.1844 21.3744 25.1185 21.3699 25.0546 21.3821C24.8409 21.4234 24.6226 21.4819 24.4014 21.5411C24.0189 21.6439 23.6244 21.7504 23.2501 21.7504C21.3241 21.7504 19.9756 21.3364 18.5971 20.3231C18.517 20.2642 18.4167 20.2394 18.3183 20.2544C18.2199 20.2694 18.1315 20.3228 18.0725 20.403C18.0135 20.4832 17.9888 20.5835 18.0038 20.6819C18.0188 20.7802 18.0722 20.8687 18.1524 20.9276C19.6726 22.0451 21.1494 22.5004 23.2501 22.5004C23.7234 22.5004 24.1674 22.3811 24.5964 22.2656C24.7299 22.2281 24.8624 22.1936 24.9939 22.1621C26.3956 23.6426 27.9811 23.9794 28.0501 23.9929C28.1046 24.0039 28.1609 24.0027 28.2148 23.9894C28.2688 23.976 28.3191 23.9508 28.3621 23.9156C28.4052 23.8805 28.4399 23.8362 28.4638 23.786C28.4877 23.7358 28.5001 23.681 28.5001 23.6254V20.4461C30.4366 19.0654 31.5001 17.4034 31.5001 15.7504C31.5001 13.2146 29.9874 11.5519 26.7391 10.5176Z" fill="black"/>
<path d="M24.75 10.125C24.75 4.353 19.4865 0 12.5077 0C5.49375 0 0 4.44825 0 10.1265C0 13.5308 2.40825 15.9697 4.5 17.4457V22.4227C4.50039 22.4852 4.51631 22.5466 4.54634 22.6014C4.57637 22.6562 4.61956 22.7026 4.67201 22.7365C4.72447 22.7705 4.78454 22.7908 4.84682 22.7957C4.90909 22.8007 4.97162 22.79 5.02875 22.7648C5.13825 22.716 7.698 21.5527 9.888 19.158C10.8368 19.3343 11.91 19.5037 12.8835 19.5037C19.9807 19.5037 24.75 15.7343 24.75 10.125ZM12.8827 18.7537C11.9003 18.7537 10.7835 18.5655 9.8205 18.3818C9.75668 18.3702 9.69099 18.3752 9.62959 18.396C9.56819 18.4169 9.5131 18.453 9.4695 18.501C7.932 20.235 6.12525 21.3368 5.25 21.8115V17.25C5.24998 17.1892 5.23515 17.1292 5.20679 17.0754C5.17844 17.0216 5.13741 16.9754 5.08725 16.941C3.10875 15.5797 0.75 13.2937 0.75 10.1265C0.75 4.86825 5.9145 0.75 12.5077 0.75C19.0597 0.75 24 4.7805 24 10.125C24 15.2865 19.5322 18.7537 12.8827 18.7537Z" fill="black"/>
<path d="M12.375 8.625C11.5477 8.625 10.875 9.29775 10.875 10.125C10.875 10.9523 11.5477 11.625 12.375 11.625C13.2023 11.625 13.875 10.9523 13.875 10.125C13.875 9.29775 13.2023 8.625 12.375 8.625ZM12.375 10.875C12.1819 10.8664 11.9996 10.7836 11.866 10.6439C11.7324 10.5042 11.6578 10.3183 11.6578 10.125C11.6578 9.9317 11.7324 9.74584 11.866 9.60614C11.9996 9.46643 12.1819 9.38364 12.375 9.375C12.5681 9.38364 12.7504 9.46643 12.884 9.60614C13.0176 9.74584 13.0922 9.9317 13.0922 10.125C13.0922 10.3183 13.0176 10.5042 12.884 10.6439C12.7504 10.7836 12.5681 10.8664 12.375 10.875ZM17.625 8.625C16.7977 8.625 16.125 9.29775 16.125 10.125C16.125 10.9523 16.7977 11.625 17.625 11.625C18.4523 11.625 19.125 10.9523 19.125 10.125C19.125 9.29775 18.4523 8.625 17.625 8.625ZM17.625 10.875C17.4319 10.8664 17.2496 10.7836 17.116 10.6439C16.9824 10.5042 16.9078 10.3183 16.9078 10.125C16.9078 9.9317 16.9824 9.74584 17.116 9.60614C17.2496 9.46643 17.4319 9.38364 17.625 9.375C17.8181 9.38364 18.0004 9.46643 18.134 9.60614C18.2676 9.74584 18.3422 9.9317 18.3422 10.125C18.3422 10.3183 18.2676 10.5042 18.134 10.6439C18.0004 10.7836 17.8181 10.8664 17.625 10.875ZM7.125 8.69625C6.29775 8.69625 5.625 9.369 5.625 10.1963C5.625 11.0235 6.29775 11.6963 7.125 11.6963C7.95225 11.6963 8.625 11.0235 8.625 10.1963C8.625 9.369 7.95225 8.69625 7.125 8.69625ZM7.125 10.9463C6.93189 10.9376 6.74955 10.8548 6.61596 10.7151C6.48236 10.5754 6.4078 10.3896 6.4078 10.1963C6.4078 10.0029 6.48236 9.81709 6.61596 9.67739C6.74955 9.53768 6.93189 9.45489 7.125 9.44625C7.31811 9.45489 7.50045 9.53768 7.63404 9.67739C7.76764 9.81709 7.8422 10.0029 7.8422 10.1963C7.8422 10.3896 7.76764 10.5754 7.63404 10.7151C7.50045 10.8548 7.31811 10.9376 7.125 10.9463Z" fill="black"/>
</svg>
