<svg width="26" height="26" viewBox="0 0 26 26" fill="none" xmlns="http://www.w3.org/2000/svg">
<path d="M5.72553 13.5367C5.31037 13.1326 4.98144 12.6516 4.7579 12.1217C4.53437 11.5918 4.42071 11.0236 4.42353 10.4502C4.42353 9.29056 4.89369 8.17839 5.73056 7.35837C6.56744 6.53836 7.70249 6.07768 8.88602 6.07768C10.545 6.07768 11.994 6.96248 12.7605 8.27939H13.9365C14.3262 7.60968 14.89 7.05311 15.5706 6.66636C16.2512 6.27961 17.0242 6.07649 17.811 6.07768C18.9945 6.07768 20.1296 6.53836 20.9664 7.35837C21.8033 8.17839 22.2735 9.29056 22.2735 10.4502C22.2735 11.654 21.7485 12.7651 20.9715 13.5367L13.3485 20.9958L5.72553 13.5367ZM21.7065 14.2672C22.704 13.2795 23.3235 11.942 23.3235 10.4502C23.3235 9.0177 22.7427 7.64383 21.7089 6.63088C20.6751 5.61792 19.273 5.04885 17.811 5.04885C15.9735 5.04885 14.346 5.92336 13.3485 7.28142C12.8394 6.5885 12.1689 6.02451 11.3929 5.63624C10.6168 5.24797 9.75741 5.0466 8.88602 5.04885C7.42402 5.04885 6.0219 5.61792 4.9881 6.63088C3.95431 7.64383 3.37354 9.0177 3.37354 10.4502C3.37354 11.942 3.99303 13.2795 4.99053 14.2672L13.3485 22.4568L21.7065 14.2672Z" fill="black"/>
</svg>
