<svg width="48" height="44" viewBox="0 0 48 44" fill="none" xmlns="http://www.w3.org/2000/svg">
<path d="M23.9932 0.5C37.0168 0.5 47.4863 10.0341 47.4863 21.6914C47.4862 33.3486 37.0167 42.8828 23.9932 42.8828C10.9697 42.8827 0.500138 33.3486 0.5 21.6914C0.5 10.0341 10.9696 0.500082 23.9932 0.5Z" stroke="white"/>
<path d="M18.5064 9H30.1117C34.5328 9 38.1249 12.25 38.1249 16.25V26.75C38.1249 28.6728 37.2807 30.5169 35.7779 31.8765C34.2751 33.2362 32.2369 34 30.1117 34H18.5064C14.0853 34 10.4932 30.75 10.4932 26.75V16.25C10.4932 14.3272 11.3374 12.4831 12.8402 11.1235C14.3429 9.76384 16.3811 9 18.5064 9ZM18.2301 11.5C16.9109 11.5 15.6459 11.9741 14.7131 12.818C13.7804 13.6619 13.2563 14.8065 13.2563 16V27C13.2563 29.4875 15.4807 31.5 18.2301 31.5H30.388C31.7071 31.5 32.9722 31.0259 33.905 30.182C34.8377 29.3381 35.3617 28.1935 35.3617 27V16C35.3617 13.5125 33.1374 11.5 30.388 11.5H18.2301ZM31.5624 13.375C32.0204 13.375 32.4597 13.5396 32.7835 13.8326C33.1074 14.1257 33.2894 14.5231 33.2894 14.9375C33.2894 15.3519 33.1074 15.7493 32.7835 16.0424C32.4597 16.3354 32.0204 16.5 31.5624 16.5C31.1043 16.5 30.6651 16.3354 30.3412 16.0424C30.0173 15.7493 29.8354 15.3519 29.8354 14.9375C29.8354 14.5231 30.0173 14.1257 30.3412 13.8326C30.6651 13.5396 31.1043 13.375 31.5624 13.375ZM24.309 15.25C26.1411 15.25 27.8982 15.9085 29.1937 17.0806C30.4892 18.2527 31.217 19.8424 31.217 21.5C31.217 23.1576 30.4892 24.7473 29.1937 25.9194C27.8982 27.0915 26.1411 27.75 24.309 27.75C22.4769 27.75 20.7199 27.0915 19.4244 25.9194C18.1289 24.7473 17.4011 23.1576 17.4011 21.5C17.4011 19.8424 18.1289 18.2527 19.4244 17.0806C20.7199 15.9085 22.4769 15.25 24.309 15.25ZM24.309 17.75C23.2098 17.75 22.1555 18.1451 21.3782 18.8483C20.601 19.5516 20.1643 20.5054 20.1643 21.5C20.1643 22.4946 20.601 23.4484 21.3782 24.1517C22.1555 24.8549 23.2098 25.25 24.309 25.25C25.4083 25.25 26.4625 24.8549 27.2398 24.1517C28.0171 23.4484 28.4538 22.4946 28.4538 21.5C28.4538 20.5054 28.0171 19.5516 27.2398 18.8483C26.4625 18.1451 25.4083 17.75 24.309 17.75Z" fill="white"/>
</svg>
