<svg width="116" height="53" viewBox="0 0 116 53" fill="none" xmlns="http://www.w3.org/2000/svg">
<path d="M25.9127 15.6H30.5527V38H25.9127V15.6ZM33.1094 23.28H42.1974V26.768H33.1094V23.28ZM35.6374 18.16H39.6374V38H35.6374V18.16ZM47.3477 33.424C47.3477 33.8507 47.4544 34.224 47.6677 34.544C47.881 34.8427 48.169 35.0773 48.5317 35.248C48.9157 35.3973 49.3317 35.472 49.7797 35.472C50.4197 35.472 50.9957 35.344 51.5077 35.088C52.0197 34.8107 52.4357 34.4267 52.7557 33.936C53.0757 33.424 53.2357 32.816 53.2357 32.112L53.7477 34.032C53.7477 34.9707 53.481 35.76 52.9477 36.4C52.4357 37.04 51.7637 37.52 50.9317 37.84C50.121 38.16 49.2677 38.32 48.3717 38.32C47.4544 38.32 46.601 38.1387 45.8117 37.776C45.0224 37.4133 44.3824 36.8907 43.8917 36.208C43.4224 35.504 43.1877 34.6507 43.1877 33.648C43.1877 32.2187 43.689 31.088 44.6917 30.256C45.6944 29.424 47.113 29.008 48.9477 29.008C49.8864 29.008 50.7077 29.104 51.4117 29.296C52.137 29.488 52.745 29.7227 53.2357 30C53.7264 30.2773 54.0784 30.544 54.2917 30.8V32.72C53.7157 32.2933 53.065 31.9733 52.3397 31.76C51.6357 31.5467 50.889 31.44 50.0997 31.44C49.4597 31.44 48.937 31.5253 48.5317 31.696C48.1264 31.8453 47.8277 32.0693 47.6357 32.368C47.4437 32.6453 47.3477 32.9973 47.3477 33.424ZM45.7477 27.44L44.2117 24.624C44.9797 24.2187 45.9184 23.8347 47.0277 23.472C48.137 23.088 49.3744 22.896 50.7397 22.896C51.9984 22.896 53.1184 23.0773 54.0997 23.44C55.081 23.8027 55.849 24.336 56.4037 25.04C56.9584 25.7227 57.2357 26.5653 57.2357 27.568V38H53.2357V28.432C53.2357 28.0267 53.1717 27.6853 53.0437 27.408C52.9157 27.1093 52.713 26.864 52.4357 26.672C52.1797 26.48 51.8704 26.3413 51.5077 26.256C51.145 26.1707 50.7397 26.128 50.2917 26.128C49.609 26.128 48.9584 26.2027 48.3397 26.352C47.721 26.5013 47.1877 26.6827 46.7397 26.896C46.2917 27.1093 45.961 27.2907 45.7477 27.44ZM61.0912 13.04H65.2512V38H61.0912V13.04ZM69.1492 17.584C69.1492 16.9013 69.3945 16.3467 69.8852 15.92C70.3759 15.472 70.9625 15.248 71.6452 15.248C72.3279 15.248 72.9039 15.472 73.3732 15.92C73.8639 16.3467 74.1092 16.9013 74.1092 17.584C74.1092 18.2453 73.8639 18.8 73.3732 19.248C72.9039 19.696 72.3279 19.92 71.6452 19.92C70.9625 19.92 70.3759 19.696 69.8852 19.248C69.3945 18.8 69.1492 18.2453 69.1492 17.584ZM69.5972 23.28H73.6292V38H69.5972V23.28ZM81.1647 30.64C81.1647 31.4933 81.3567 32.24 81.7407 32.88C82.1247 33.52 82.6367 34.0213 83.2767 34.384C83.938 34.7467 84.6634 34.928 85.4527 34.928C86.0927 34.928 86.7114 34.832 87.3087 34.64C87.906 34.4267 88.4394 34.1493 88.9087 33.808C89.3994 33.4453 89.7727 33.0293 90.0287 32.56V36.816C89.5167 37.2853 88.8447 37.6587 88.0127 37.936C87.202 38.192 86.2527 38.32 85.1647 38.32C83.6074 38.32 82.1994 38 80.9407 37.36C79.7034 36.72 78.722 35.824 77.9967 34.672C77.2927 33.4987 76.9407 32.1547 76.9407 30.64C76.9407 29.104 77.2927 27.76 77.9967 26.608C78.722 25.456 79.7034 24.56 80.9407 23.92C82.1994 23.28 83.6074 22.96 85.1647 22.96C86.2527 22.96 87.202 23.0987 88.0127 23.376C88.8447 23.632 89.5167 23.984 90.0287 24.432V28.688C89.7727 28.2187 89.3887 27.8133 88.8767 27.472C88.386 27.1093 87.842 26.832 87.2447 26.64C86.6474 26.448 86.05 26.352 85.4527 26.352C84.6634 26.352 83.938 26.544 83.2767 26.928C82.6367 27.2907 82.1247 27.792 81.7407 28.432C81.3567 29.072 81.1647 29.808 81.1647 30.64Z" fill="black"/>
<circle cx="71.5818" cy="17.6807" r="2.5" fill="#C49144"/>
</svg>
