<svg width="27" height="27" viewBox="0 0 27 27" fill="none" xmlns="http://www.w3.org/2000/svg">
<path d="M5.59633 5.59668H11.1927V11.1931H10.0734V7.27559C7.44313 8.36129 5.59633 10.958 5.59633 13.9912C5.59633 17.9982 8.85342 21.2665 12.8716 21.2665C14.8011 21.2665 16.6516 20.5 18.016 19.1356C19.3804 17.7713 20.1469 15.9208 20.1469 13.9912C20.1469 10.5439 17.7516 7.65615 14.5505 6.90623V5.75338C18.3784 6.53687 21.2662 9.91708 21.2662 13.9912C21.2662 18.6138 17.5054 22.3858 12.8716 22.3858C10.6452 22.3858 8.51005 21.5014 6.93576 19.9271C5.36148 18.3528 4.47705 16.2176 4.47705 13.9912C4.47705 10.8797 6.15596 8.17101 8.66314 6.71595H5.59633V5.59668Z" fill="black"/>
</svg>
