<svg width="19" height="19" viewBox="0 0 19 19" fill="none" xmlns="http://www.w3.org/2000/svg">
<path d="M16.7708 18.2083C17.1521 18.2083 17.5177 18.0569 17.7873 17.7873C18.0569 17.5177 18.2083 17.1521 18.2083 16.7708V13.4167C18.2083 13.0354 18.0569 12.6698 17.7873 12.4002C17.5177 12.1306 17.1521 11.9792 16.7708 11.9792C15.6496 11.9792 14.5475 11.8067 13.4933 11.4521C13.2413 11.3725 12.9723 11.3635 12.7155 11.426C12.4587 11.4885 12.2239 11.6202 12.0367 11.8067L10.6567 13.1867C8.27256 11.8856 6.3131 9.92619 5.01208 7.54208L6.3825 6.17167C6.77542 5.79792 6.91917 5.24208 6.74667 4.70542C6.40167 3.66083 6.22917 2.55875 6.22917 1.4375C6.22917 1.05625 6.07772 0.690618 5.80813 0.421034C5.53855 0.151451 5.17292 0 4.79167 0H1.4375C1.05625 0 0.690618 0.151451 0.421034 0.421034C0.151451 0.690618 0 1.05625 0 1.4375C0 10.6854 7.52292 18.2083 16.7708 18.2083ZM1.4375 0.958333H4.79167C4.91875 0.958333 5.04063 1.00882 5.13049 1.09868C5.22035 1.18854 5.27083 1.31042 5.27083 1.4375C5.27083 2.66417 5.4625 3.86208 5.83625 5.0025C5.88417 5.13667 5.87458 5.32833 5.72125 5.48167L3.83333 7.36C5.41458 10.4554 7.73375 12.7746 10.8388 14.375L12.7075 12.4871C12.8417 12.3529 13.0238 12.3146 13.1963 12.3625C14.3463 12.7458 15.5442 12.9375 16.7708 12.9375C16.8979 12.9375 17.0198 12.988 17.1097 13.0778C17.1995 13.1677 17.25 13.2896 17.25 13.4167V16.7708C17.25 16.8979 17.1995 17.0198 17.1097 17.1097C17.0198 17.1995 16.8979 17.25 16.7708 17.25C8.05 17.25 0.958333 10.1583 0.958333 1.4375C0.958333 1.31042 1.00882 1.18854 1.09868 1.09868C1.18854 1.00882 1.31042 0.958333 1.4375 0.958333Z" fill="white"/>
</svg>
