<svg width="23" height="22" viewBox="0 0 23 22" fill="none" xmlns="http://www.w3.org/2000/svg">
<path d="M9.10417 2.75C10.7562 2.75 12.3407 3.37775 13.5089 4.49516C14.677 5.61256 15.3333 7.12808 15.3333 8.70833C15.3333 10.1933 14.7679 11.55 13.8288 12.5858L19.2433 17.765L18.5629 18.4158L13.1483 13.2367C12.0225 14.1607 10.5877 14.6681 9.10417 14.6667C7.45209 14.6667 5.86768 14.0389 4.69948 12.9215C3.53129 11.8041 2.875 10.2886 2.875 8.70833C2.875 7.12808 3.53129 5.61256 4.69948 4.49516C5.86768 3.37775 7.45209 2.75 9.10417 2.75ZM9.10417 3.66667C7.70625 3.66667 6.3656 4.19784 5.37712 5.14334C4.38865 6.08883 3.83333 7.3712 3.83333 8.70833C3.83333 10.0455 4.38865 11.3278 5.37712 12.2733C6.3656 13.2188 7.70625 13.75 9.10417 13.75C9.79634 13.75 10.4817 13.6196 11.1212 13.3662C11.7607 13.1129 12.3418 12.7415 12.8312 12.2733C13.3207 11.8052 13.7089 11.2494 13.9738 10.6377C14.2387 10.026 14.375 9.37041 14.375 8.70833C14.375 8.04625 14.2387 7.39065 13.9738 6.77897C13.7089 6.16729 13.3207 5.6115 12.8312 5.14334C12.3418 4.67517 11.7607 4.30381 11.1212 4.05044C10.4817 3.79707 9.79634 3.66667 9.10417 3.66667Z" fill="black"/>
</svg>
