<svg width="29" height="29" viewBox="0 0 29 29" fill="none" xmlns="http://www.w3.org/2000/svg">
<path d="M6.8285 22.0568C5.94883 22.0568 5.20329 21.7495 4.59188 21.1349C3.97965 20.5202 3.67354 19.7739 3.67354 18.8958H2.97633C2.70003 18.8958 2.46843 18.8024 2.28154 18.6155C2.09465 18.4286 2.00081 18.1966 2 17.9195V6.95267C2 6.39603 2.18649 5.93162 2.55946 5.55946C2.93243 5.18729 3.39683 5.00081 3.95267 5H17.9875C18.5248 5 18.9843 5.19132 19.3662 5.57396C19.748 5.9566 19.9393 6.41576 19.9401 6.95146V9.36812H21.7526C22.0612 9.36812 22.3536 9.4374 22.6299 9.57596C22.907 9.71451 23.135 9.90583 23.3138 10.1499L26.7153 14.7295C26.7805 14.8109 26.8292 14.9003 26.8615 14.9978C26.8937 15.0952 26.9098 15.2012 26.9098 15.3155V17.9195C26.9098 18.1966 26.8168 18.4286 26.6307 18.6155C26.4446 18.8024 26.2126 18.8958 25.9347 18.8958H24.9583C24.9583 19.7739 24.6506 20.5202 24.0352 21.1349C23.4197 21.7495 22.6726 22.0564 21.7937 22.0556C20.9148 22.0548 20.1689 21.7479 19.5559 21.1349C18.9428 20.5218 18.6367 19.7755 18.6375 18.8958H9.99554C9.99554 19.7787 9.68782 20.5263 9.07238 21.1385C8.45693 21.7507 7.70817 22.0568 6.8285 22.0568ZM6.83454 20.8485C7.37829 20.8485 7.83947 20.6592 8.21808 20.2806C8.59669 19.902 8.786 19.4404 8.786 18.8958C8.786 18.3513 8.59669 17.8901 8.21808 17.5123C7.83947 17.1345 7.37829 16.9452 6.83454 16.9444C6.29079 16.9436 5.82961 17.1329 5.451 17.5123C5.07239 17.8917 4.88308 18.3529 4.88308 18.8958C4.88308 19.4388 5.07239 19.9 5.451 20.2794C5.82961 20.6588 6.29079 20.8493 6.83454 20.8485ZM3.20954 17.6875H3.99133C4.16292 17.1542 4.51293 16.6959 5.04138 16.3124C5.56982 15.929 6.16754 15.7364 6.83454 15.7348C7.47093 15.7348 8.0614 15.9233 8.60596 16.3003C9.14971 16.6765 9.50738 17.1389 9.67896 17.6875H18.733V6.95267C18.733 6.73517 18.6629 6.55674 18.5228 6.41737C18.3826 6.27801 18.2042 6.20833 17.9875 6.20833H3.95267C3.76658 6.20833 3.59621 6.28567 3.44154 6.44033C3.28607 6.59581 3.20833 6.76658 3.20833 6.95267L3.20954 17.6875ZM21.7997 20.8485C22.3435 20.8485 22.8047 20.6592 23.1833 20.2806C23.5619 19.9012 23.7512 19.4396 23.7512 18.8958C23.7512 18.3521 23.5619 17.8909 23.1833 17.5123C22.8047 17.1337 22.3435 16.9444 21.7997 16.9444C21.256 16.9444 20.7948 17.1337 20.4162 17.5123C20.0376 17.8909 19.8483 18.3521 19.8483 18.8958C19.8483 19.4396 20.0376 19.9008 20.4162 20.2794C20.7948 20.658 21.256 20.8485 21.7997 20.8485ZM19.9389 15.2708H25.6326L22.3097 10.8798C22.2323 10.7863 22.1433 10.7126 22.0426 10.6586C21.9419 10.6047 21.8296 10.5777 21.7055 10.5777H19.9401L19.9389 15.2708Z" fill="black"/>
</svg>
