<svg width="48" height="50" viewBox="0 0 48 50" fill="none" xmlns="http://www.w3.org/2000/svg">
<path d="M23.9932 0.5C37.0168 0.5 47.4863 10.0341 47.4863 21.6914C47.4862 33.3486 37.0167 42.8828 23.9932 42.8828C10.9697 42.8827 0.500138 33.3486 0.5 21.6914C0.5 10.0341 10.9696 0.500082 23.9932 0.5Z" stroke="white"/>
<path d="M35.593 14.5734C34.7494 14.9569 33.8401 15.2088 32.8979 15.3294C33.862 14.7487 34.607 13.8285 34.9576 12.7219C34.0483 13.2697 33.0404 13.6532 31.9777 13.8723C31.1122 12.9301 29.8961 12.3823 28.5157 12.3823C25.9412 12.3823 23.8377 14.4858 23.8377 17.0822C23.8377 17.4547 23.8816 17.8163 23.9582 18.1559C20.0581 17.9587 16.5852 16.0853 14.2736 13.2478C13.8682 13.938 13.6382 14.7487 13.6382 15.6032C13.6382 17.2356 14.4598 18.6817 15.7307 19.5034C14.9528 19.5034 14.2298 19.2843 13.5943 18.9556V18.9885C13.5943 21.2672 15.2157 23.1735 17.363 23.6008C16.6738 23.7902 15.9498 23.8165 15.2486 23.6775C15.5462 24.6114 16.1289 25.4286 16.915 26.0142C17.701 26.5998 18.6508 26.9243 19.6308 26.9422C17.9696 28.2574 15.9103 28.9683 13.7915 28.958C13.419 28.958 13.0466 28.9361 12.6741 28.8923C14.7556 30.2288 17.2316 31.0067 19.8828 31.0067C28.5157 31.0067 33.2595 23.8418 33.2595 17.63C33.2595 17.4219 33.2595 17.2247 33.2485 17.0165C34.1688 16.3592 34.9576 15.5266 35.593 14.5734Z" fill="white"/>
</svg>
